<svg xmlns="http://www.w3.org/2000/svg" version="1.1" xmlns:xlink="http://www.w3.org/1999/xlink" viewBox="0 0 16.343322280247726 14.811754175008577"><g transform="matrix(0.8508585249090296,0,0,0.8508585249090296,6.69292469523936,12.18302304296863)"><g transform="matrix(1,0,0,1,0,0)" clip-path="url(#SvgjsClipPath76612)"><g clip-path="url(#a576c6b0b-652e-4cd1-8211-1e87aa9e9d157657607f-0ff3-424e-a775-50e89a1c83e8)"><path d=" M 6.15281906197387 -6.064944555663034 C 6.15281906197387 -3.626717051683375 4.176227666237064 -1.6501256559465691 1.7380001622574035 -1.6501256559465691 C -0.7002273417222558 -1.6501256559465691 -2.6768187374590604 -3.626717051683375 -2.6768187374590604 -6.064944555663034 C -2.6768187374590604 -8.503172059642694 -0.7002273417222558 -10.4797634553795 1.7380001622574035 -10.4797634553795 C 4.176227666237064 -10.4797634553795 6.15281906197387 -8.503172059642694 6.15281906197387 -6.064944555663034" fill="#102036" transform="matrix(1,0,0,1,0,0)" fill-rule="nonzero"></path></g><g clip-path="url(#a576c6b0b-652e-4cd1-8211-1e87aa9e9d157657607f-0ff3-424e-a775-50e89a1c83e8)"><path d=" M 7.5512393273529055 -7.6619772302150375 L 7.165121411677581 -7.6619772302150375 C 6.475662614797305 -10.008463467253947 4.3075427399372925 -11.722249803737219 1.7379564342941363 -11.722249803737219 C 1.5426673503296975 -11.722249803737219 1.349695848418575 -11.712367284038168 1.1595229361567423 -11.693039524272766 C 0.9709628003393371 -11.673894504926022 0.7834834157393491 -11.645289523311824 0.5977935199885405 -11.607332716263294 C 0.4795531073060868 -11.583107424611638 0.3632804529707876 -11.553940873110456 0.24783862993762273 -11.522500467519226 C -0.4960177532507055 -11.319865085725404 -1.1783488921179486 -10.969298004188703 -1.7665774540278538 -10.504294842774048 C -1.8308234469775768 -10.453524418657848 -1.8939667386125199 -10.401373978995371 -1.955963262950823 -10.347879918156764 C -2.0611727425787767 -10.257013210481414 -2.164108368116683 -10.163522825009858 -2.2624088295479554 -10.065266091541856 C -2.3347796440057023 -9.99254538804827 -2.40516384006636 -9.917874273893178 -2.4734837082529166 -9.841335191635473 C -2.798392219002999 -9.478688291549275 -3.0753453922552914 -9.07578719074208 -3.297537176078681 -8.64253307858462 C -3.3773023925044416 -8.487056169914291 -3.4497799146758075 -8.32794706950024 -3.51473396964146 -8.165723367087022 C -3.552444604853642 -8.07152049187043 -3.5875712966997213 -7.976303680847231 -3.620074633159214 -7.880179766933042 C -3.6446253051319992 -7.807926873222373 -3.6676893815592035 -7.73517735275983 -3.689252271052583 -7.6619772302150215 L -4.075370186727901 -7.6619772302150215 C -4.658526304898471 -7.6619772302150375 -5.135598384175682 -7.184861422974555 -5.135598384175682 -6.601749032767256 L -5.135598384175682 -5.674060291991266 C -5.135598384175682 -5.090947901783967 -4.658526304898468 -4.6138320945434845 -4.075370186727901 -4.6138320945434845 L -3.730706380232669 -4.6138320945434845 C -3.1179901588914856 -2.298829991059076 -1.0749322589840693 -0.5666779100023458 1.3956102098522223 -0.41905230600235654 C 1.4746266394813619 -0.31642277620734127 1.598376775535855 -0.25 1.7379564342941372 -0.25 C 1.9766673857858237 -0.25 2.1701636232561885 -0.4435399654336347 2.1701636232561885 -0.6822509169253195 C 2.1701636232561885 -0.9209618684170078 1.9766673857858237 -1.1145018338506407 1.7379564342941372 -1.1145018338506407 C 1.6140427658752428 -1.1145258910364664 1.4961213785624095 -1.0611816396213367 1.4143257781318415 -0.9681006128222158 C -1.2961957531309705 -1.1377213823470829 -3.433837237591698 -3.4201024252319687 -3.368682572319191 -6.188126228195014 C -3.3048834739080593 -8.897816928155693 -1.0949596661617926 -11.10778446386523 1.614774761762157 -11.17153983431309 C 4.492162200863819 -11.239274449418536 6.84599473573211 -8.926983479656876 6.84599473573211 -6.064944555663033 C 6.84599473573211 -5.560673683231795 6.7717446540994155 -5.073937724071881 6.635619504439473 -4.613832094543482 L 7.5512393273529055 -4.613832094543482 C 8.134351717560204 -4.613832094543482 8.611467524800688 -5.090947901783965 8.611467524800688 -5.674060291991263 L 8.611467524800688 -6.6017490327672546 C 8.611467524800688 -7.184861422974555 8.134351717560204 -7.6619772302150375 7.5512393273529055 -7.6619772302150375" fill="#a5b2ba" transform="matrix(1,0,0,1,0,0)" fill-rule="nonzero"></path></g><g clip-path="url(#a576c6b0b-652e-4cd1-8211-1e87aa9e9d157657607f-0ff3-424e-a775-50e89a1c83e8)"><path d=" M 5.773391524678879 -6.050732967600238 L 6.1527753340106 -6.064944555663034 L 5.773391524678879 -6.079156143725829 C 5.73910880147509 -6.080030702991231 5.702246128438364 -6.081080174109715 5.663896704650452 -6.082217101154738 C 5.6600049159194095 -6.650330799960379 5.561223446892167 -7.218182130986399 5.371400358336495 -7.748995877122612 C 5.443963175894436 -7.748343296466921 5.516523042038881 -7.747395849440121 5.589078159495812 -7.746153559510045 C 5.6845363033139575 -7.745585095987542 5.761934798302103 -7.7449729045017595 5.821186188533139 -7.744491896905788 C 5.819743165745225 -7.747990133967399 5.818475054810391 -7.75157582695555 5.817032032022477 -7.755117791980432 C 5.758524017167033 -7.760190235719768 5.6828309127464225 -7.766705702247019 5.590258814503538 -7.774533007672373 C 5.520949992720369 -7.77956172344844 5.441714923274877 -7.785596182379718 5.355439651742894 -7.792067920943699 C 5.275596124874078 -8.00999597837868 5.1796244788391315 -8.221671485213603 5.068321844911165 -8.425336285021846 C 4.873557496505966 -8.781238178077505 4.6331411544467445 -9.108629439081032 4.3547252123057705 -9.392948656263474 C 4.331593119735868 -9.41638684457627 4.307761379753644 -9.43899420158693 4.284104551624497 -9.461776470450673 C 4.388089648280887 -9.45477999632745 4.480093283001259 -9.448133345910389 4.556573490760731 -9.441486695493328 L 4.583378732245326 -9.439431481219632 C 4.570785078823527 -9.450057376294275 4.5587161609609685 -9.4612954628547 4.545991323649358 -9.471790174039533 C 4.455430711716901 -9.48643904173503 4.344973876496531 -9.504804786308489 4.217987871160049 -9.52408881811062 C 4.118843929790509 -9.614917440771611 4.01573485729589 -9.701320713350235 3.908962354729982 -9.783045816596378 C 3.752153878443262 -9.901198773352295 3.586599809502517 -10.004746590375984 3.4172414077572695 -10.097493600471948 C 3.2503317719551506 -10.186611189616489 3.0776063170381027 -10.260380263653214 2.9029131037738987 -10.323261074835672 C 2.523302703871291 -10.427105429145929 2.1315141874111614 -10.479739005228312 1.7379564342941354 -10.4797634553795 C 1.336315091657914 -10.4797634553795 0.9476172261496503 -10.425103501291826 0.5777661128108189 -10.324616641697046 C 0.4015424208321594 -10.261342278845156 0.22724275923738801 -10.18700474128592 0.05889010064735345 -10.097100048802515 C -0.1104245731346234 -10.004353038706551 -0.2759786420753665 -9.900805221682862 -0.43274339039881404 -9.782652264926949 C -0.5394095878347098 -9.701042412482746 -0.6424027393554503 -9.614740600434981 -0.7414190831227376 -9.524001362184066 C -0.8687111842020965 -9.504717330381947 -0.979474115165357 -9.486351585808489 -1.070209638950896 -9.471702718112994 C -1.082847020335965 -9.46125173489143 -1.094828482271983 -9.450057376294273 -1.107378407730513 -9.439475209182902 L -1.0806606221724584 -9.441574151419868 C -1.003961774596636 -9.448220801836928 -0.9116083161701027 -9.454911180217259 -0.8072733958075515 -9.461995110267022 C -0.8311488637530475 -9.4390379295502 -0.8551555155883523 -9.416255660686456 -0.878418792048067 -9.392598832557312 C -1.1572720138217418 -9.108716895007571 -1.3973822601380723 -8.781019538261154 -1.5922340644698112 -8.425248829095306 C -1.7034780030290433 -8.222482263411672 -1.7988924188844861 -8.01035791358823 -1.8793081433382701 -7.791980465017158 C -1.965670870796794 -7.785508726453178 -2.0449933961688256 -7.779474267521898 -2.1143022179519955 -7.774445551745832 C -2.189902109695012 -7.768092050992915 -2.2654932532781413 -7.761634882345138 -2.3410754354789187 -7.75507406401648 C -2.342562186222119 -7.75157582695555 -2.3437865691936834 -7.747990133967399 -2.3452733199448677 -7.744491896905788 C -2.2860219297138307 -7.745016632465029 -2.2086234347256846 -7.7456288239508115 -2.113121562943702 -7.746241015436593 C -2.0404933085889883 -7.7474773632778735 -1.9678606435056287 -7.748439385331959 -1.8952251219699732 -7.749127061012404 C -2.0850044825610037 -7.21822585894967 -2.1836984956617065 -6.650330799960379 -2.187940108098909 -6.082129645228198 C -2.2262895318868208 -6.080992718183174 -2.2631959328868176 -6.079943247064691 -2.297478656090606 -6.079068687799289 L -2.676862465422328 -6.064944555663033 L -2.297478656090606 -6.050820423526778 L -2.187940108098909 -6.047759466097869 C -2.1840920473311365 -5.479558311365688 -2.085310578303893 -4.911663252376397 -1.8954437617849513 -4.380762050313645 C -1.9750723828998749 -4.381592881615777 -2.0484041773038966 -4.38246744088118 -2.113121562943702 -4.383648095889473 C -2.2086234347256846 -4.384260287375255 -2.2860219297138307 -4.384828750897768 -2.3452733199448677 -4.385353486457009 C -2.3438302971569547 -4.381855249395398 -2.342562186222119 -4.378313284370517 -2.341075435470935 -4.374815047308906 C -2.2826111485787597 -4.369742603569569 -2.2069180441581486 -4.36322713704232 -2.1143022179519955 -4.355399831616964 C -2.0450371241320955 -4.3504148438041685 -1.965845782649875 -4.344380384872889 -1.8795705111178922 -4.337908646308908 C -1.799111058700837 -4.119487469774567 -1.7036966428453941 -3.907319391987854 -1.5924527042861607 -3.704552826304221 C -1.397644627917693 -3.348650933248562 -1.157228285858472 -3.0212596722450353 -0.8787686157542289 -2.7369404550625926 C -0.8556365231843257 -2.7134148108232594 -0.8317610552388306 -2.690763725849326 -0.8080167711831452 -2.667937729022313 C -0.9120893237660752 -2.674977931108806 -1.0041366864497165 -2.6816683094891367 -1.0806606221724602 -2.688314959906199 L -1.107378407730514 -2.690370174179895 C -1.0948284822719847 -2.6797880070685203 -1.082847020335966 -2.6686373764346367 -1.0702096389508968 -2.6581863932130734 C -0.97969275498171 -2.6435375255175764 -0.8692359197613388 -2.625215508907388 -0.7422936423881268 -2.606018933031798 C -0.6430991589617259 -2.5150924753299986 -0.5399161528071499 -2.428615428175279 -0.43304948614170335 -2.3468432947296822 C -0.27624100985498945 -2.228690337973772 -0.11068694091424547 -2.1251425209500834 0.058671460831002165 -2.032395510854119 C 0.22558109663312198 -1.9432779217095764 0.3983940074767096 -1.8694651197095826 0.5730872207409128 -1.806584308527123 C 1.3340419230933316 -1.598449298128532 2.1368624101599316 -1.597981216443733 2.898059299850913 -1.8052287416657489 C 3.0743267197928423 -1.8685031045176395 3.2486701093508836 -1.9428406420768756 3.417066495904188 -2.0327890625235483 C 3.586337441722894 -2.1255360726195125 3.751891510663641 -2.229040161679931 3.9086562589870857 -2.3471931184358468 C 4.015228659924914 -2.428770857901357 4.118147863546093 -2.5150134738079064 4.217113311894653 -2.6056691093256426 C 4.3444491409372885 -2.624996869091037 4.45525579986382 -2.643406341627765 4.546035051612628 -2.658098937286532 C 4.558759888924237 -2.668593648471365 4.570828806786795 -2.67983173503179 4.583422460208596 -2.690457630106433 C 4.574472433538111 -2.6897627260826855 4.56552277579696 -2.689063078571973 4.556573490756111 -2.6883586878691066 C 4.465564796585716 -2.6807710767540005 4.374490423731268 -2.6739929744208855 4.283361176248925 -2.6680251849488563 C 4.30714918826786 -2.6909386377024056 4.331112112139896 -2.713677178602877 4.3543753885996095 -2.737290278768752 C 4.633184882410014 -3.021172216318492 4.873295128726345 -3.34886957306491 5.068190661021352 -3.704640282230759 C 5.179434599580586 -3.907363119951121 5.274805287472758 -4.119443741811294 5.355221011926543 -4.337777462419097 C 5.441583739385066 -4.344292928946346 5.520906264757097 -4.350327387877626 5.590258814503538 -4.355356103653691 C 5.682830912746421 -4.363183409079046 5.758524017167031 -4.369698875606297 5.817032032022477 -4.374771319345633 C 5.818475054810391 -4.378269556407244 5.819743165745225 -4.3818989773586665 5.821186188533139 -4.385397214420276 C 5.761934798302101 -4.384872478861036 5.6845363033139575 -4.384304015338523 5.5890781594952434 -4.383735551816012 C 5.524273317928899 -4.382554896807719 5.450897795561606 -4.381680337542315 5.371181718520144 -4.3808932342034534 C 5.560961079112546 -4.911706980339669 5.659611364249977 -5.479558311365688 5.663896704650452 -6.047672010171329 C 5.702246128438364 -6.048808937216353 5.73910880147509 -6.049858408334836 5.773391524678879 -6.050732967600238 M 5.518238858997621 -6.086677353408293 C 5.30978765808887 -6.093192819935544 5.058395597248842 -6.101238765177248 4.773158092837728 -6.106835944475827 C 4.552769157956228 -6.111864660251893 4.3123965438602765 -6.116412368431987 4.0581184374444215 -6.120347885126299 C 4.051602970917171 -6.6740750840160645 3.995762361821204 -7.2278460108691 3.880407994714578 -7.763819656671189 C 4.149509880679012 -7.761239706838252 4.4031757956090845 -7.758572301078773 4.633971985748878 -7.7562547190254545 C 4.854404648593646 -7.753324945486357 5.053410609436047 -7.751794466771901 5.227229263434848 -7.750307716020716 C 5.418670286631515 -7.22133054434185 5.516752108246435 -6.653916492948531 5.518238858997621 -6.086677353408293 M 3.2865822535060945 -7.8975397683512725 C 3.0395192610298123 -7.904055234878523 2.7841916834954734 -7.909652414177101 2.52470994945047 -7.914156394393926 C 2.4766529178165886 -7.914768585879708 2.4278962387703835 -7.915118409585869 2.379576839356881 -7.915643145145111 C 2.3426267103936143 -8.422406511482746 2.2897158748367454 -8.920817836835788 2.2053646336886477 -9.400207498166317 C 2.1960505775121097 -9.451806494825082 2.1862117857763277 -9.503011939814414 2.176241810150736 -9.554173656840476 C 2.2218063478782204 -9.553474009428154 2.267676981348596 -9.553124185721991 2.3129354233331894 -9.552162170530048 C 2.5026273279990505 -9.54949476477057 2.6893020031992725 -9.544466048994504 2.8698984915049452 -9.537513302834553 C 2.9357090762265043 -9.535195720781235 3.000382733903039 -9.532659498911567 3.064487928057063 -9.530035821115359 C 3.096540525134073 -9.480054759097591 3.1285493942478153 -9.429986241153282 3.15824068130824 -9.378124876714896 C 3.2376943905700815 -9.242130910944766 3.3076591318023025 -9.099140471051413 3.3714582302134355 -8.952520610206637 C 3.5005431777868834 -8.659718168149789 3.60334761943498 -8.35078010764626 3.6831074244397124 -8.033315094305053 C 3.6957010778615134 -7.983596400066906 3.706764252568857 -7.9333529702695165 3.718264706908905 -7.883284452325208 C 3.577766760921949 -7.888531807917625 3.4339017617631926 -7.89334188387734 3.2865822535060962 -7.8975397683512725 M 3.744895036540419 -7.765087767606023 C 3.857888093630458 -7.230119864959147 3.9096182741790306 -6.675999114399951 3.9127666875344813 -6.122534283289807 C 3.7339193177596153 -6.125070505159474 3.5488625772003877 -6.127344359249522 3.359039488644716 -6.129180933706867 L 2.561441438597387 -6.135390304491226 L 2.4449064164824676 -6.135740128197388 C 2.4418891870168284 -6.681421381845447 2.4277650548805747 -7.227058907530237 2.3911210216601972 -7.763294921111947 C 2.390858653880577 -7.7667931581735585 2.390552558137685 -7.770247667271899 2.3903339183213346 -7.773789632296781 C 2.434630345113985 -7.77357099248043 2.4794077795026084 -7.77352726451716 2.523529294442177 -7.773264896737539 C 2.782661204781018 -7.773002528957917 3.0376389586091976 -7.771515778206734 3.2844833112691303 -7.769067012263606 C 3.4418165231150892 -7.767842629292042 3.5953016741932755 -7.766487062430668 3.744895036540419 -7.765087767606023 M 1.7379564342941363 -5.992006312928443 L 2.299467210645986 -5.993711703495977 C 2.2999044902786876 -5.4506978556073955 2.2842061514647076 -4.908165015314787 2.257532093869923 -4.374552679529285 C 2.257182270163762 -4.368212124855115 2.256701262567791 -4.361959026107485 2.2563514388616293 -4.3555747434700445 C 2.084150719503823 -4.355093735874074 1.9112940806969654 -4.354918824020992 1.7379564342941354 -4.355443559580235 C 1.564706243817846 -4.3548750960577225 1.3919807889007982 -4.355050007910804 1.2199112534328043 -4.355531015506775 C 1.2195614297266433 -4.361915298144215 1.2190366941674018 -4.368212124855115 1.2187305984245107 -4.374596407492556 C 1.1917504450868348 -4.908252471241327 1.1763144740524751 -5.4503043039379655 1.1764893859055565 -5.993755431459247 L 1.7379564342941363 -5.992006312928443 M 1.1764456579422866 -6.13613367986682 C 1.176008378309585 -6.67875397608597 1.191706717123565 -7.221724096011281 1.2183807747183497 -7.755336431796783 C 1.2187305984245116 -7.7616769864709525 1.2192116060204832 -7.767973813181852 1.2195614297266433 -7.7743143678560225 C 1.3917621490844496 -7.774795375451994 1.564618787891309 -7.774970287305075 1.7379564342941372 -7.774401823782563 C 1.9112066247704265 -7.774970287305075 2.083975807650744 -7.774795375451994 2.25600161515547 -7.774270639892753 C 2.25635143886163 -7.767930085218582 2.2568761744208716 -7.761633258507683 2.2571822701637636 -7.755292703833513 C 2.2842061514647076 -7.221680368048011 2.299642122499068 -6.6791912557186714 2.299423482682718 -6.13617740783009 L 1.7379564342941363 -6.137882798397626 L 1.1764456579422866 -6.13613367986682 M 2.1981932477123456 -8.581576297786052 C 2.218176926926799 -8.362542929765928 2.233962721667319 -8.140404876353625 2.2472560225014417 -7.916954984043215 C 2.0780725326092755 -7.918485462757669 1.9082331232680563 -7.919709845729233 1.7379564342941363 -7.920278309251746 C 1.5675922893936765 -7.919709845729233 1.3977091520891882 -7.918485462757671 1.2284382062704813 -7.9169112560799455 C 1.2586979568534158 -8.417727619412842 1.3002832499233188 -8.910585493430574 1.3709913665311335 -9.383634600086936 C 1.3799118710382414 -9.441268055676977 1.3894445670311315 -9.498551687560859 1.3992833587669136 -9.55566040759166 C 1.5118391362242498 -9.556841062599954 1.6247884653510187 -9.557453254085736 1.7379564342941372 -9.556928518526494 C 1.8509932193474459 -9.557409526122466 1.9637676366211325 -9.556797334636684 2.076192230188658 -9.55561667962839 C 2.08607474988771 -9.498507959597589 2.095563717917331 -9.441224327713707 2.104527950387709 -9.383547144160394 C 2.144801404559508 -9.121835283988615 2.173836772170879 -8.853520501363043 2.1981932477123456 -8.581576297786052 M 1.2709855145323266 -9.400120042239777 C 1.1868529132005792 -8.920730380909248 1.133679709864091 -8.422362783519477 1.0966858529375534 -7.91555568921857 C 1.0482352696342403 -7.915030953659329 0.9993911346614945 -7.914681129953167 0.9512466471010734 -7.914112666430656 C 0.6917649130560699 -7.909564958250561 0.43639360755845935 -7.903880323025444 0.1893306150821772 -7.897364856498192 C 0.0419673788618109 -7.893166972024259 -0.10202880418675608 -7.8883131681012735 -0.2426142061002512 -7.883065812508857 C -0.23111375176020488 -7.933221786379706 -0.22005057705286024 -7.983596400066906 -0.20741319566778849 -8.033358822268323 C -0.12774084658959683 -8.35091129153607 -0.02458658123533919 -8.659674440186519 0.10401735874213891 -8.952695522059718 C 0.16781645715327098 -9.099359110867763 0.23782492634876284 -9.242349550761116 0.3172786356106041 -9.378387244494517 C 0.3469699226710281 -9.430204880969631 0.37897879178476934 -9.48027339891394 0.41103138886178137 -9.530210732968438 C 0.4752240389423452 -9.532834410764647 0.5400726084719603 -9.535370632634315 0.6060581050465998 -9.537688214687632 C 0.7866545933522717 -9.544597232884314 0.9733292685524946 -9.549582220697111 1.162977445255085 -9.55224962645659 C 1.2083670711294898 -9.553167913685261 1.2544126164529459 -9.553561465354694 1.3001520660335109 -9.554217384803746 C 1.2900734306499748 -9.502919711771717 1.280351012570124 -9.451552693310857 1.2709855145323283 -9.40012004223978 M 0.19147328528241392 -7.769241924116686 C 0.43827390997907667 -7.771646962096543 0.6932953917705253 -7.773089984884458 0.9523835741460953 -7.77335235266408 C 0.9966362729754765 -7.7736147204437 1.0415011632906381 -7.7736147204437 1.0859287739730998 -7.773833360260051 C 1.0857101341567486 -7.770291395235169 1.0854040384138584 -7.7667931581735585 1.0851416706342363 -7.763294921111948 C 1.0481478137077005 -7.2269277236404275 1.0342860493510662 -6.681771205551609 1.0310501800690766 -6.135696400234118 L 0.9145151579541562 -6.135346576527956 L 0.11691710790682741 -6.1290497498170575 C -0.07299343657538415 -6.12712571943317 -0.25805017713461087 -6.124851865343124 -0.4368975469094778 -6.122315643473455 C -0.4342301411499996 -6.674774731428387 -0.38223759282180403 -7.229988681069337 -0.2692008077684962 -7.765306407422375 C -0.11951998949481091 -7.766705702247019 0.03405261750991517 -7.768017541145122 0.1914732852824148 -7.769241924116686 M 0.11691710790682741 -6.000839361509011 L 0.9145151579541562 -5.994542534798111 L 1.0310064521058049 -5.994192711091951 C 1.034023681571444 -5.448861281150052 1.0481478137077005 -4.902786475832559 1.0847918469280762 -4.36659419021412 C 1.0850542147076965 -4.3630522251892385 1.0853603104505876 -4.359597716090898 1.085578950266938 -4.356055751066016 C 1.0412825234742877 -4.356230662919097 0.9965050890856668 -4.356274390882367 0.9523835741460953 -4.3565367586619885 C 0.6932953917705253 -4.35679912644161 0.43827390997907667 -4.358198421266254 0.19147328528241392 -4.3606471872093815 C 0.034140073436454976 -4.361871570180945 -0.1193450776417313 -4.36318340907905 -0.268938439988875 -4.364582703903694 C -0.3819314970789147 -4.89946315062403 -0.4336616776274882 -5.452796797844363 -0.4368538189462079 -6.0075734678526125 C -0.25800644917134097 -6.004993518019674 -0.07294970861211425 -6.0027633918928975 0.11691710790682652 -6.000839361509011 M 0.1893306150821763 -4.232480526864607 C 0.43639360755845935 -4.225965060337355 0.691764913056069 -4.220280425112236 0.9512466471010717 -4.215776444895413 C 0.999259950771684 -4.215164253409631 1.048016629817889 -4.21481442970347 1.0963360292313915 -4.214289694144229 C 1.1332861581946583 -3.707526327806592 1.186240721714796 -3.2090712744902827 1.2705482348996249 -2.7296816131597517 C 1.2798622910761628 -2.678082616500987 1.2897010828119448 -2.626833443548385 1.2997147864008056 -2.575671726522323 C 1.2541065207100521 -2.576327645971375 1.2082358872396757 -2.576721197640806 1.1629774452550823 -2.5776394848694792 C 0.9733292685524919 -2.5802631626656876 0.78665459335227 -2.585248150478483 0.6060581050465972 -2.5921571686751648 C 0.540247520325039 -2.5945184786917537 0.47561759061177433 -2.5970109725981505 0.4115561244210202 -2.5996783783576287 C 0.37945979938074004 -2.649703168338668 0.347450930266997 -2.699815414246247 0.3176721872800323 -2.751720506647901 C 0.23821847801819107 -2.8877582003813025 0.1682537367859691 -3.0307049123113856 0.10445463837483793 -3.17736850111943 C -0.024674037161882545 -3.470170943176278 -0.12739102288343762 -3.7791090036798076 -0.20719455585144164 -4.096574017021014 C -0.21983193723651073 -4.146380167185702 -0.23089511194385626 -4.196667324946361 -0.24239556628390346 -4.246823298817211 C -0.10185389233367825 -4.241575943224794 0.04201110682507814 -4.236722139301808 0.1893306150821763 -4.232480526864605 M 1.2777196208759252 -3.548269085576747 C 1.2577359416614735 -3.767346181560141 1.2419501469209528 -3.989484234972445 1.22865684608683 -4.212934127282853 C 1.397840335978997 -4.211403648568398 1.5676797453202154 -4.2101355376335645 1.7379564342941354 -4.209610802074322 C 1.908320579194596 -4.2101355376335645 2.078247444462354 -4.211359920605128 2.2474746623177912 -4.212890399319583 C 2.217214911734855 -3.712117763949955 2.175629618664952 -3.219259889932223 2.104921502057138 -2.7462107832758633 C 2.096001386488245 -2.688815156971243 2.0865703485012963 -2.631500100766166 2.076629509821375 -2.5742724316977696 C 1.96374324035801 -2.5730031526455264 1.8508491492482362 -2.572565861137031 1.7379564342947056 -2.572960592799575 C 1.6249633772040957 -2.5724358572403325 1.5121452319671382 -2.5730480487261147 1.3997206383996126 -2.5742287037344074 C 1.3897798106919828 -2.6315001675591176 1.3803487732914128 -2.6888589498948825 1.3714286461638139 -2.746298239202515 C 1.3311551919920346 -3.0080100993741823 1.3021198243806635 -3.276324881999754 1.2777196208759252 -3.548269085576747 M 2.204927354055944 -2.7297253411230216 C 2.2890599553876916 -3.209115002453551 2.3422768866874506 -3.7074825998433205 2.3792270156507183 -4.214245966180957 C 2.4276775989540305 -4.214726973776928 2.4765217339267753 -4.215076797483089 2.524709949450468 -4.2156889889688705 C 2.7841916834954707 -4.220192969185696 3.0395192610298105 -4.225833876447544 3.2865822535060945 -4.2323493429747945 C 3.4339454897264607 -4.236503499485457 3.577897944811757 -4.241357303408442 3.718483346725253 -4.24660465900086 C 3.7069828923852066 -4.196492413093281 3.695919717677861 -4.146248983295891 3.683326064256062 -4.0965302890577435 C 3.6036537151778676 -3.778977819789996 3.5004994498236117 -3.470214671139548 3.3719392378094044 -3.1771498613030786 C 3.3080964114350015 -3.0304862724950343 3.238087942239509 -2.8874958326016813 3.1586779609409374 -2.75150186683155 C 3.1289866738805125 -2.6997716862829755 3.097021532730042 -2.649790624265208 3.0650126636163018 -2.59989701817398 C 2.999981978287953 -2.597188693645295 2.934943652991554 -2.5946670373753964 2.8698984915070165 -2.5923320805283208 C 2.68930200319927 -2.5853793343682927 2.502627327999048 -2.5803943465554973 2.3129354233331876 -2.577726940796019 C 2.2675457974587827 -2.576764925604074 2.2215002521353266 -2.576415101897915 2.1758045305180316 -2.575715454485593 C 2.1857745061436233 -2.626877171511655 2.1956570258426753 -2.678126344464257 2.204927354055944 -2.7297253411230216 M 3.2844833112691267 -4.360822099062461 C 3.037638958609194 -4.358329605156063 2.782661204781016 -4.356886582368148 2.5235292944421746 -4.356624214588528 C 2.479276595612795 -4.356361846808907 2.4344554332609016 -4.356318118845638 2.38998409461517 -4.356099479029288 L 2.3907711979540336 -4.36659419021412 C 2.427765054880571 -4.902873931759101 2.4416268192372037 -5.44842400151735 2.444862688519195 -5.994148983128679 L 2.5614414385973845 -5.994498806834841 L 3.3590394886447124 -6.00066444965593 C 3.548862577200384 -6.002544752076545 3.73396304572288 -6.004774878203323 3.9128104154977477 -6.007354828036261 C 3.9100555538117296 -5.453846268962846 3.858106733446804 -4.89976924636692 3.745113676356765 -4.3648013437200435 C 3.5954328580830817 -4.3634020488953995 3.4419039790416255 -4.362046482034026 3.2844833112691267 -4.360822099062461 M 4.953842037069939 -8.363111393288438 C 5.0512181412482535 -8.182402602788663 5.136159913009066 -7.995264805319752 5.208076415522524 -7.802999911761231 C 5.03959257304268 -7.815331197403412 4.847976637992933 -7.828449586384454 4.636551935581813 -7.839993768687771 C 4.397840984090126 -7.8538118050811345 4.1346423731671615 -7.866799010172366 3.8548708641648135 -7.878037096732791 C 3.840265724432588 -7.94078672402544 3.825660584700363 -8.003536351318088 3.8093500544006007 -8.065761243051496 C 3.674536743638762 -8.58419997558226 3.478548012262002 -9.087071553188855 3.196284009353257 -9.52435118589024 C 3.4342953134326217 -9.513725290815596 3.6576140218532194 -9.501568917026498 3.8575382699242935 -9.48949999916394 C 3.942326790705091 -9.483990275791902 4.022436419415986 -9.478874104089297 4.098348163652946 -9.47397657220304 C 4.4377208865924915 -9.159091508694772 4.7288179380818045 -8.780975810297884 4.953842037069939 -8.363111393288438 M 2.3321757271720474 -10.384830047120028 C 2.511726684453728 -10.349724618401147 2.6884219397917226 -10.301330376493288 2.860803075144755 -10.240046760732598 C 3.0335285300618002 -10.174979551386633 3.2040238588520724 -10.098980351223132 3.3683098168579813 -10.007720091878353 C 3.5955203140096215 -9.881346278027651 3.8100497018129227 -9.728210950655626 4.009449214324756 -9.553998744987393 C 3.961479638617413 -9.560470483551374 3.9124605917915867 -9.566898494152085 3.8613426027287945 -9.573107864936444 C 3.6129027573300414 -9.604112590727159 3.3637755142848063 -9.629335867514676 3.114162894331881 -9.648757241393788 C 3.0705224615019793 -9.710912146479055 3.024785856564635 -9.771568568652018 2.9770320015167764 -9.830621840634297 C 2.7856784342466554 -10.06382306875394 2.5556256194824547 -10.26820756907857 2.2863925496282125 -10.39208888902287 C 2.3016536088094908 -10.389596395116474 2.316914667990769 -10.387409996952966 2.3321757271720474 -10.384830047120028 M 2.2065890166602085 -10.337254023082117 C 2.476652917816585 -10.218357690950612 2.707055556286946 -10.008463467253945 2.897490836328399 -9.766472918516998 C 2.925039453188586 -9.732015283460129 2.9499206642892952 -9.695021426533593 2.9758076185452174 -9.658989584798999 C 2.9416998071945093 -9.661394622778856 2.9075919958438012 -9.663755932795443 2.8730031768971207 -9.66598605892222 C 2.691969408958747 -9.676961777703024 2.5048574541258244 -9.686144649989753 2.3146845418639908 -9.693053668186435 C 2.258931388694564 -9.6947153307907 2.2025660440393553 -9.695721073945915 2.1464193392004978 -9.696945456917478 C 2.111480696547658 -9.857689449898508 2.070901146632968 -10.015809765083329 2.016328648471836 -10.168813908565543 C 1.9936338355346335 -10.230207968996819 1.9686651685073855 -10.290814926089231 1.9365251155038328 -10.349191757054866 C 1.9202145852040706 -10.376259366319081 1.903423047308337 -10.40442017466505 1.882521080865211 -10.430482040774052 C 1.9943604107309687 -10.414659713324884 2.103438693128572 -10.38328002123587 2.2065890166602085 -10.337254023082117 M 1.6551793998237612 -10.38561715045889 C 1.663487712845087 -10.397423700541827 1.6725394012420063 -10.4075685880205 1.6824219209410565 -10.415395893445854 C 1.687057085047691 -10.419200226250357 1.6922169847135686 -10.425409597034717 1.6963274132609616 -10.427464811308413 C 1.700262929955274 -10.429301385765758 1.7037611670168848 -10.431487783929265 1.7072594040784965 -10.434286373578555 C 1.7138185985690173 -10.436997507301303 1.7196344176839453 -10.439052721574999 1.7250566851294424 -10.440452016399645 C 1.732709078701717 -10.440626928252724 1.7403177443107207 -10.440626928252724 1.7479264099197245 -10.440626928252724 L 1.7496318004872604 -10.440277104546563 C 1.7543544205204356 -10.439577457134241 1.7592956803699602 -10.439402545281162 1.764105756329677 -10.43551075655012 C 1.804379210501474 -10.415570805298936 1.839536492970665 -10.36344707308093 1.8671288377941213 -10.311629436605816 C 1.8949398224339307 -10.258237593452977 1.9174597235180517 -10.200210586193503 1.9376620425488564 -10.140915467999196 C 1.9844509632479044 -9.999368050893757 2.019433333864016 -9.850824159665097 2.0492120768509805 -9.699219311007525 C 1.9454691507340867 -9.70109499390279 1.841715038441448 -9.702290250605232 1.7379564342942961 -9.702805003995675 C 1.6340519840008705 -9.702275703093012 1.5301521147756523 -9.701065870160116 1.4262635121052432 -9.699175583044262 C 1.4560859830548205 -9.850824159665097 1.4910683536709302 -9.999411778857027 1.5379010023332498 -10.141046651889006 C 1.5581470493273235 -10.200341770083313 1.5806669504114454 -10.258412505306058 1.6084342070879831 -10.311804348458898 C 1.6229956188569385 -10.337516390861738 1.6370322950666525 -10.364802639942305 1.6551793998237612 -10.385617150458891 M 1.594222619025187 -10.430700680590405 C 1.5719650857206862 -10.404944910224293 1.5563542028332469 -10.376827829841593 1.5397375767905954 -10.349016845201787 C 1.5075975237870436 -10.29068374219942 1.482585128796523 -10.23007678510701 1.4599777717858622 -10.168682724675735 C 1.4054052736247282 -10.01572230915679 1.36482572371004 -9.857601993971969 1.3299308090204693 -9.69690172895421 C 1.2736529202918012 -9.695677345982645 1.217112663783512 -9.69462787486416 1.1612283267242747 -9.692966212259897 C 0.9750185277729546 -9.686187277519783 0.7888984426311607 -9.677134914356163 0.6029096916914032 -9.665811147069155 C 0.5681022329281147 -9.663581020942363 0.5337320537977854 -9.661175982962506 0.4993618746674571 -9.658770944982647 C 0.5253800128131889 -9.694977698570323 0.5504361357669794 -9.73210273938667 0.5781159365169763 -9.76673528629662 C 0.7685512165584312 -10.008769562996838 0.9990413109553309 -10.218663786693503 1.2691926680382464 -10.33760384678828 C 1.3724205212086469 -10.384309004962835 1.4819215645602677 -10.415672885131757 1.594222619025187 -10.430700680590405 M 0.10742813987720456 -10.008113643547786 C 0.27171409788311607 -10.099373902892564 0.4422094266733865 -10.175373103056065 0.6150223375169741 -10.240440312402031 C 0.7874175302728883 -10.301715488728671 0.9641277796399805 -10.350095217877147 1.1436934134529535 -10.38517987082619 C 1.1599602157894413 -10.387934732512209 1.1759646503463124 -10.390252314565526 1.192100268792994 -10.392875992361734 C 0.9219051837468069 -10.269169584270513 0.6911089936070152 -10.064260348386643 0.49923069077764737 -9.83035947285467 C 0.4515587255848015 -9.771315722916349 0.4058810403742239 -9.710689242258503 0.3622747098155692 -9.648582329540702 C 0.062467110940906956 -9.625288251106774 -0.2366319883797381 -9.593631457784566 -0.5346732727814771 -9.553648921281237 C -0.33505512045332786 -9.728210950655628 -0.12021963690713644 -9.881608645807274 0.10742813987720456 -10.008113643547786 M -1.4781040803347505 -8.363242577178251 C -1.2531237093098873 -8.780975810297885 -0.9622015696736561 -9.159178964621313 -0.6229600306239194 -9.474151484056122 C -0.5468733745338783 -9.479092743905648 -0.46663256193317526 -9.484208915608255 -0.3816254013360245 -9.48967491101702 C -0.1814387854853292 -9.50178755684285 0.04214229071488873 -9.51403138655849 0.28041596257387447 -9.524613553669862 C -0.0019792242246809977 -9.087246465041936 -0.19840523523414344 -8.584374887435342 -0.33321854599598044 -8.065673787124958 C -0.3494853483324727 -8.00340516742828 -0.3641779439912387 -7.940611812172362 -0.3787830837234658 -7.877818456916442 C -0.6585983206890829 -7.866580370356017 -0.9218406595753175 -7.853636893228057 -1.1606390669935438 -7.839818856834692 C -1.351357676548719 -7.829224858630772 -1.5419757832304612 -7.816893060951433 -1.7324696426776502 -7.8028249999081165 C -1.6605177875626653 -7.995195353704322 -1.5755321445114028 -8.182435512092663 -1.4781040803347456 -8.363242577178259 M -1.7514475787363866 -7.750482627873799 C -1.5776289247375854 -7.7520131065882545 -1.3785355079686452 -7.753543585302708 -1.1580591171606058 -7.756429630878538 C -0.9271754710942739 -7.7587909408951266 -0.6734221002376595 -7.761458346654604 -0.4042327583466854 -7.764038296487542 C -0.5195433974900414 -7.228152106611994 -0.5752090947329274 -6.675168283097821 -0.58211811292961 -6.1201292453099505 C -0.8364399473087358 -6.116193728615639 -1.0768562893679574 -6.111646020435544 -1.297245224249457 -6.106661032622748 C -1.5824827286605703 -6.1009763973976305 -1.8338747895005971 -6.093017908082465 -2.0423259904093483 -6.086589897481755 C -2.0411890633643233 -6.6538727649852625 -1.9430197858228633 -7.221418000268392 -1.7514475787363866 -7.750482627873799 M -2.0423259904093483 -6.043299213844315 C -1.8338747895005971 -6.036827475280335 -1.5824827286605703 -6.028868985965169 -1.297245224249457 -6.023228078703322 C -1.0768562893679574 -6.018243090890525 -0.8364836752720057 -6.013695382710431 -0.5822055688561498 -6.009759866016119 C -0.5757338302921697 -5.456994682318296 -0.5198932211962024 -4.9022180123100485 -0.40449512612630745 -4.365850814838527 C -0.6735532841274692 -4.368430764671466 -0.9272191990575438 -4.371098170430944 -1.1580591171606058 -4.373459480447532 C -1.378448052042104 -4.3763455260233615 -1.5774540128845058 -4.377876004737815 -1.7512289389200357 -4.379406483452271 C -1.9427574180432425 -4.908471111057677 -2.040839239658164 -5.476016346340807 -2.042325990409349 -6.043299213844315 M -1.47792916848167 -3.766733990074359 C -1.5752906005009635 -3.947522701452967 -1.6602600933884966 -4.134715636866991 -1.7322510028607905 -4.327020383454632 C -1.5637234324176812 -4.314776553739006 -1.3720637694046638 -4.301658164757964 -1.1606390669935438 -4.290070254491377 C -0.9002239729623467 -4.275118802667308 -0.6396827460326042 -4.262451782067448 -0.37904545150344937 -4.252070654409645 C -0.3644403117708608 -4.189233571190439 -0.349747716112093 -4.126396487971249 -0.3334371858123317 -4.064127868274571 C -0.19858014708722393 -3.5456016798172687 -0.002547687747191496 -3.0426426462841327 0.2798037710880923 -2.6052755576562063 C 0.05923852640979366 -2.615173916225366 -0.16124479112560053 -2.626820496333176 -0.38162540133478196 -2.6402142003089804 C -0.4663264661902833 -2.645680195717814 -0.5463486389746368 -2.650752639457151 -0.6222166552483275 -2.6556938993066765 C -0.9616768341144137 -2.9706226907782156 -1.2528613415302665 -3.3487821171383736 -1.47792916848167 -3.766733990074359 M 1.1437371414162225 -1.7450590642060408 C 0.9641991760646569 -1.7801589027359643 0.7875180461221429 -1.8285532790794203 0.615153521406782 -1.8898423505934705 C 0.44238433852646963 -1.954909559939436 0.27188900973619745 -2.0308650321396655 0.10764677969355763 -2.122125291484446 C -0.11969490134789407 -2.2485865612616873 -0.3343117450777333 -2.4017656165969825 -0.5337987135161057 -2.5761090061550256 C -0.48574168188222444 -2.5695935396277747 -0.4366351791298575 -2.5631655290270636 -0.3853860061772556 -2.556956158242704 C -0.13700198751626935 -2.5259862231094807 0.11206649742134811 -2.5007775706212083 0.36161879036651445 -2.4813505097486335 C 0.4053026216765696 -2.41910861815332 0.4510829128760667 -2.3583647784445283 0.49888086707149526 -2.299223542728498 C 0.6902781623048835 -2.0660223146088583 0.9203309770690842 -1.8616378142842294 1.1895203189600574 -1.737800222303198 C 1.174259259778779 -1.740248988246325 1.1589982005975008 -1.7424791143731024 1.1437371414162225 -1.7450590642060408 M 1.2693238519280596 -1.7926350882439515 C 0.999259950771684 -1.9115314203754572 0.7688573123013231 -2.121425644072124 0.57846576022314 -2.363416192809071 C 0.550829687436412 -2.39791755582921 0.525904748372434 -2.4349551407190155 0.4999740661532419 -2.4710744383801515 C 0.5341256054672199 -2.4686694004002945 0.5682771447811978 -2.4663080903837074 0.6029096916911465 -2.46407796425693 C 0.7839434596295218 -2.453014789549586 0.9710554144624437 -2.443831917262857 1.1612283267242764 -2.4368791711029036 C 1.216937751930434 -2.4352175084986385 1.2733468245489128 -2.4342117653434237 1.3295372573510411 -2.432943654408591 C 1.3644321720406118 -2.272243389390832 1.4050117219553 -2.1140793462427414 1.459627948079703 -1.9610752027605258 C 1.4822353050903656 -1.89963741436598 1.5072477000808844 -1.8390304572735694 1.539431481047706 -1.7806973542712043 C 1.5556982833841966 -1.7535860170437179 1.5724898212799303 -1.7254689366610183 1.593391787723057 -1.6994070705520148 C 1.4815480189936343 -1.7152086009429954 1.3724668845441768 -1.746589113511643 1.2693238519280596 -1.7926350882439515 M 1.8207334687645087 -1.7442282329039092 C 1.8131178421275624 -1.7330539540257774 1.8039274592159344 -1.7230387931605389 1.7934472196839417 -1.7144932178802144 C 1.7888557835405763 -1.7106888850757116 1.7836958838747012 -1.7044795142913518 1.7795854553273083 -1.7024243000176558 C 1.7756921151198517 -1.7005768370213072 1.7720240429495053 -1.6982879599870113 1.7686534645097733 -1.6956027377475138 C 1.7628735420130832 -1.6931193075235687 1.7569265163050538 -1.6910444238613085 1.7508561834588265 -1.689393366963154 C 1.743203789886553 -1.6892184551100726 1.7355951242775483 -1.6892621830733443 1.7279864586685445 -1.6892184551100726 L 1.7263247960642794 -1.6896120067795053 C 1.7215584480678343 -1.6903116541918273 1.7166171882183097 -1.690442838081637 1.711807112258593 -1.6943346268126795 C 1.6715336580867959 -1.714318306027133 1.6364201035808739 -1.7664420382451382 1.6087840307941468 -1.8182159467569825 C 1.5809730461543392 -1.871651517873092 1.5584531450702181 -1.9296785251325659 1.5382508260394134 -1.9889299153636042 C 1.4915056333036363 -2.1305210604323133 1.456479534724254 -2.279108679624244 1.4267007917372894 -2.430669800318544 C 1.530161152834439 -2.4288332258611973 1.6340150656010168 -2.427521386963093 1.7379564342941363 -2.4270841073303924 C 1.8420727148403362 -2.427521386963095 1.9460578114967264 -2.4288332258611973 2.049649356483684 -2.430669800318544 C 2.0198268855334502 -2.2790212236977023 1.984800786954069 -2.1304336045057735 1.93805559421829 -1.9887987314737945 C 1.9178095472242171 -1.9295473412427562 1.8952459181768253 -1.8714766060200105 1.8674786615002859 -1.8180410349039011 C 1.8529172497313313 -1.7923727204643303 1.8388805735216165 -1.7650864713837642 1.8207334687645087 -1.7442282329039074 M 1.8816902495630812 -1.6991447027723954 C 1.903947782867582 -1.724944201101776 1.919558665755022 -1.7530612814844755 1.9362190197609443 -1.780872266124284 C 1.9683153448012263 -1.839205369126649 1.993327739791745 -1.8997685982557897 2.015935096802407 -1.9612063866503338 C 2.0705075949635408 -2.1141230742060095 2.111087144878229 -2.272243389390832 2.1459820595677987 -2.4328999264453195 C 2.2022599482964687 -2.4341680373801537 2.258800204804757 -2.4351737805353686 2.3146845418639943 -2.436791715176362 C 2.504857454125826 -2.443700733373044 2.69196940895875 -2.4528836056597747 2.8730031768971243 -2.4639030524038485 C 2.9077669076968844 -2.466133178530626 2.9420933588639437 -2.468494488547215 2.9764198100310013 -2.470899526527072 C 2.9504453998485394 -2.434780228865936 2.9254767328212905 -2.3976989160128586 2.8977969320712935 -2.36311009706618 C 2.7073616520298387 -2.121119548329233 2.476915285596209 -1.9111815966692962 2.2067639285132916 -1.7922852645377887 C 2.1035226802743674 -1.745566275688816 1.9940073229744693 -1.7141877834842454 1.8816902495630838 -1.6991447027723954 M 3.368484728711066 -2.121775467778283 C 3.2042424986684255 -2.0304714804702364 3.033703441914885 -1.9545160082700033 2.8609342590345666 -1.8894487989240378 C 2.688543664460054 -1.8281589858708855 2.511832315626668 -1.7797789557105457 2.332263183098589 -1.744709240499878 C 2.3159963807621002 -1.74195437881386 2.2999919462052283 -1.739636796760541 2.2838125997952776 -1.7370131189643345 C 2.554007684841465 -1.860719527055556 2.7848038749812547 -2.0656287629394257 2.9766821778106225 -2.299529638471398 C 3.0242957120214244 -2.3584857358631517 3.069915131972725 -2.419024806265277 3.1134632469196193 -2.481044414005746 C 3.413252998663144 -2.504374569051473 3.712336524406582 -2.5360312573840247 4.0103675015534135 -2.5759778222652123 C 3.8107930771885163 -2.4015032488173595 3.5960450495688674 -2.2481930095922547 3.368484728711066 -2.121775467778283 M 4.954016948923022 -3.7666465341478172 C 4.7290803058614275 -3.348957028991453 4.438289350115007 -2.970885058557835 4.099135266991811 -2.655912539123028 L 3.8575382699242953 -2.6403891121621275 C 3.6369957895287675 -2.6270337953625305 3.4163523285282436 -2.6154018021090177 3.1956280899041287 -2.6054941974725523 C 3.4779795487394933 -3.042817558137214 3.674361831785684 -3.545601679817267 3.809175142547521 -4.064171596237841 C 3.8254419448840133 -4.126352760007977 3.8400908125795103 -4.189102387300627 3.8546522243484658 -4.251852014593276 C 4.134511189277354 -4.2630901011537015 4.397797256126858 -4.276077306244933 4.6365519355818146 -4.289895342638297 C 4.848064093919475 -4.301439524941613 5.039811212859033 -4.314601641885925 5.208338783302147 -4.326889199564834 C 5.136374492537645 -4.134587594025617 5.0514041604249025 -3.9474074195021576 4.95401694892302 -3.7666465341478155 M 5.227447903251199 -4.379581395305351 C 5.053585521289128 -4.378094644554166 4.854492104520186 -4.376564165839711 4.633971985748878 -4.3736343923006125 C 4.4031320676458146 -4.371316810247294 4.1493786967892 -4.368649404487817 3.880233082861497 -4.366069454654878 C 3.995543722004853 -4.902043100456967 4.05116569128447 -5.4557702993467325 4.058074709481152 -6.009541226199768 C 4.3123965438602765 -6.01347674289408 4.55276915795623 -6.018024451074175 4.773158092837728 -6.02305316685024 C 5.058395597248842 -6.028650346148819 5.30983138605214 -6.036652563427253 5.518282586960891 -6.043168029954505 C 5.517101931952596 -5.475972618377537 5.418976382374406 -4.908558566984218 5.227447903251199 -4.379581395305351" fill="#3682ae" transform="matrix(1,0,0,1,0,0)" fill-rule="nonzero"></path></g></g><g><path d=" M 0.26947200000000004 0.49123200000000006 Q 0.26409600000000005 0.4744320000000001 0.25788000000000005 0.45393600000000006 Q 0.25166400000000005 0.43344000000000005 0.24544800000000003 0.4121040000000001 Q 0.23923200000000003 0.39076800000000006 0.23402400000000004 0.37060800000000005 Q 0.22881600000000002 0.3504480000000001 0.224616 0.33364800000000006 Q 0.22041600000000003 0.316848 0.218736 0.30576000000000003 L 0.23150400000000002 0.30408 Q 0.23016000000000003 0.30878400000000006 0.22579200000000002 0.32104800000000006 Q 0.221424 0.33331200000000005 0.215376 0.3504480000000001 Q 0.20932800000000001 0.367584 0.20210400000000003 0.386904 Q 0.19488000000000003 0.40622400000000003 0.18732000000000001 0.4250400000000001 Q 0.17976000000000003 0.4438560000000001 0.17320800000000003 0.45981600000000006 Q 0.16665600000000003 0.4757760000000001 0.161952 0.48619200000000007 L 0.043008000000000005 0.4814880000000001 Q 0.039984000000000006 0.45460800000000007 0.036792000000000005 0.41714400000000007 Q 0.033600000000000005 0.3796800000000001 0.030576000000000002 0.33448800000000006 Q 0.027552000000000004 0.28929600000000005 0.025200000000000004 0.23923200000000006 Q 0.022848000000000004 0.18916800000000006 0.021504000000000002 0.13641600000000004 Q 0.02016 0.08366400000000002 0.02016 0.031584 L 0.13708800000000002 0.03595200000000004 Q 0.13708800000000002 0.06451200000000001 0.136416 0.10029600000000005 Q 0.135744 0.13608000000000003 0.13490400000000002 0.17388000000000003 Q 0.13406400000000002 0.21168000000000003 0.133392 0.24763200000000005 Q 0.13272 0.28358400000000006 0.132216 0.31315200000000004 Q 0.13171200000000002 0.34272 0.13204800000000003 0.3618720000000001 L 0.126 0.36792 Q 0.129696 0.35784000000000005 0.13524000000000003 0.34020000000000006 Q 0.14078400000000002 0.32256000000000007 0.14750400000000002 0.30088800000000004 Q 0.15422400000000003 0.279216 0.160944 0.25603200000000004 Q 0.167664 0.23284800000000005 0.17337600000000003 0.21067200000000003 Q 0.17908800000000002 0.18849600000000005 0.18312000000000003 0.17052000000000006 Q 0.187152 0.152544 0.18782400000000002 0.14145600000000003 L 0.26712 0.139776 Q 0.267456 0.14616 0.26997600000000005 0.164472 Q 0.272496 0.18278400000000006 0.27669600000000005 0.20798400000000006 Q 0.28089600000000003 0.23318400000000006 0.285936 0.260904 Q 0.290976 0.28862400000000005 0.29584800000000006 0.31466400000000005 Q 0.30072000000000004 0.34070400000000006 0.305256 0.360696 Q 0.309792 0.380688 0.31315200000000004 0.38942400000000005 L 0.298368 0.39043200000000006 Q 0.304752 0.355488 0.309624 0.30811200000000005 Q 0.31449600000000005 0.2607360000000001 0.317856 0.20966400000000002 Q 0.32121600000000006 0.158592 0.322728 0.11205600000000004 Q 0.32424000000000003 0.06552000000000002 0.32424000000000003 0.03292800000000001 L 0.43008 0.02217600000000003 Q 0.43008 0.08064000000000004 0.42537600000000003 0.14112000000000002 Q 0.42067200000000005 0.20160000000000006 0.41328000000000004 0.25804800000000006 Q 0.405888 0.31449600000000005 0.39816000000000007 0.3612000000000001 Q 0.39043200000000006 0.40790400000000004 0.38404800000000006 0.43932000000000004 Q 0.37766400000000006 0.47073600000000004 0.37531200000000003 0.4811520000000001 L 0.26947200000000004 0.49123200000000006 M 0.7989932343750001 0.4260480000000001 Q 0.7895852343750001 0.4374720000000001 0.775473234375 0.44856000000000007 Q 0.761361234375 0.45964800000000006 0.7417052343750001 0.4685520000000001 Q 0.722049234375 0.47745600000000005 0.6968492343750001 0.4826640000000001 Q 0.671649234375 0.4878720000000001 0.6404012343750001 0.4878720000000001 Q 0.5896652343750001 0.4878720000000001 0.550353234375 0.4685520000000001 Q 0.511041234375 0.4492320000000001 0.489033234375 0.4110960000000001 Q 0.46702523437500004 0.37296000000000007 0.46702523437500004 0.316176 Q 0.46702523437500004 0.25939200000000007 0.489873234375 0.21722400000000003 Q 0.5127212343750001 0.17505600000000004 0.5537132343750001 0.151704 Q 0.5947052343750001 0.12835200000000002 0.649473234375 0.12835200000000002 Q 0.718689234375 0.12835200000000002 0.7585052343750001 0.16682400000000003 Q 0.7983212343750001 0.20529600000000003 0.800001234375 0.2731680000000001 Q 0.8003372343750002 0.2856000000000001 0.7996652343750001 0.29568000000000005 Q 0.7989932343750001 0.30576000000000003 0.7969772343750001 0.317184 Q 0.7919372343750001 0.316848 0.775473234375 0.316512 Q 0.7590092343750001 0.316176 0.7383452343750001 0.31567200000000006 Q 0.7176812343750001 0.31516800000000006 0.699369234375 0.31483200000000006 Q 0.6810572343750001 0.31449600000000005 0.672321234375 0.31449600000000005 Q 0.6430892343750001 0.31449600000000005 0.615705234375 0.317184 Q 0.5883212343750001 0.31987200000000005 0.569841234375 0.32289600000000007 Q 0.569841234375 0.328944 0.5706812343750001 0.33482400000000007 Q 0.571521234375 0.34070400000000006 0.573201234375 0.34608000000000005 Q 0.5775692343750001 0.35985600000000006 0.5884892343750001 0.36960000000000004 Q 0.599409234375 0.37934400000000007 0.614697234375 0.38455200000000006 Q 0.6299852343750001 0.38976000000000005 0.647121234375 0.38976000000000005 Q 0.662577234375 0.38976000000000005 0.6755132343750001 0.3858960000000001 Q 0.688449234375 0.38203200000000004 0.699201234375 0.37564800000000004 Q 0.7099532343750001 0.36926400000000004 0.718857234375 0.361704 Q 0.7277612343750001 0.354144 0.7354892343750001 0.34675200000000006 Q 0.737505234375 0.3484320000000001 0.7459052343750001 0.3566640000000001 Q 0.7543052343750001 0.36489600000000005 0.7647212343750001 0.37682400000000005 Q 0.775137234375 0.38875200000000004 0.7845452343750001 0.40185600000000005 Q 0.7939532343750001 0.41496000000000005 0.7989932343750001 0.4260480000000001 M 0.573537234375 0.2600640000000001 Q 0.5886572343750001 0.25771200000000005 0.610833234375 0.25569600000000003 Q 0.633009234375 0.25368 0.662241234375 0.25368 Q 0.6780332343750001 0.25368 0.690297234375 0.254016 Q 0.7025612343750001 0.254352 0.707601234375 0.254688 Q 0.707601234375 0.24763200000000005 0.705585234375 0.23923200000000006 Q 0.7028972343750001 0.22780800000000007 0.695001234375 0.21739200000000003 Q 0.687105234375 0.20697600000000005 0.6748412343750001 0.20059200000000005 Q 0.662577234375 0.19420800000000005 0.645441234375 0.19420800000000005 Q 0.623937234375 0.19420800000000005 0.6079772343750001 0.20361600000000002 Q 0.5920172343750001 0.21302400000000005 0.583281234375 0.228144 Q 0.574545234375 0.24326400000000004 0.573537234375 0.2600640000000001 M 0.8628299531250001 0.4885440000000001 Q 0.8618219531250001 0.47678400000000004 0.8608139531250001 0.4490640000000001 Q 0.8598059531250001 0.42134400000000005 0.8584619531250001 0.38354400000000005 Q 0.857117953125 0.34574400000000005 0.855773953125 0.30223200000000006 Q 0.854429953125 0.25872000000000006 0.853421953125 0.21487200000000006 Q 0.8524139531250001 0.171024 0.8514059531250001 0.13171200000000005 Q 0.8503979531250001 0.09240000000000004 0.8497259531250001 0.06216000000000005 Q 0.8490539531250001 0.031920000000000004 0.8490539531250001 0.016800000000000037 Q 0.8537579531250001 0.015792000000000028 0.8814779531250001 0.01092000000000004 Q 0.9091979531250001 0.006047999999999998 0.9495179531250001 0 Q 0.9495179531250001 0.02116800000000002 0.950021953125 0.05779200000000001 Q 0.9505259531250001 0.094416 0.9518699531250001 0.13826400000000005 Q 0.9532139531250001 0.18211200000000005 0.955565953125 0.22545600000000005 Q 0.9629579531250001 0.21772800000000003 0.9740459531250001 0.20932800000000001 Q 0.9851339531250001 0.20092800000000005 0.9992459531250001 0.19370400000000004 Q 1.013357953125 0.18648000000000003 1.0296539531250002 0.18194400000000005 Q 1.045949953125 0.177408 1.0634219531250002 0.177408 Q 1.102733953125 0.177408 1.132133953125 0.19555200000000006 Q 1.1615339531250002 0.21369600000000005 1.177829953125 0.24948000000000004 Q 1.1941259531250001 0.2852640000000001 1.1941259531250001 0.3376800000000001 Q 1.1941259531250001 0.405888 1.158005953125 0.44570400000000004 Q 1.121885953125 0.48552000000000006 1.060397953125 0.48552000000000006 Q 1.036205953125 0.48552000000000006 1.0172219531250002 0.47896800000000006 Q 0.9982379531250001 0.47241600000000006 0.9856379531250001 0.4635120000000001 Q 0.9730379531250001 0.45460800000000007 0.9676619531250001 0.44788800000000006 Q 0.967997953125 0.45427200000000006 0.9685019531250001 0.4640160000000001 Q 0.9690059531250002 0.47376000000000007 0.9695099531250001 0.4818240000000001 Q 0.970013953125 0.48988800000000005 0.970013953125 0.49257600000000007 Q 0.9411179531250001 0.4929120000000001 0.9125579531250001 0.49190400000000006 Q 0.8839979531250001 0.49089600000000005 0.8628299531250001 0.4885440000000001 M 0.9646379531250001 0.37262400000000007 Q 0.970013953125 0.37598400000000004 0.9800939531250001 0.380688 Q 0.9901739531250001 0.38539200000000007 1.0036139531250001 0.38892000000000004 Q 1.017053953125 0.3924480000000001 1.031501953125 0.3924480000000001 Q 1.0664459531250001 0.3924480000000001 1.0822379531250002 0.37648800000000004 Q 1.0980299531250002 0.36052800000000007 1.0980299531250002 0.330288 Q 1.0980299531250002 0.3121440000000001 1.092317953125 0.296856 Q 1.086605953125 0.28156800000000004 1.0745099531250002 0.27249600000000007 Q 1.062413953125 0.26342400000000005 1.0429259531250001 0.26342400000000005 Q 1.0214219531250002 0.26342400000000005 1.005293953125 0.27081600000000006 Q 0.9891659531250001 0.278208 0.9782459531250001 0.28862400000000005 Q 0.967325953125 0.2990400000000001 0.9609419531250001 0.30744000000000005 Q 0.9609419531250001 0.31012800000000007 0.9612779531250001 0.3166800000000001 Q 0.9616139531250001 0.3232320000000001 0.9621179531250001 0.33163200000000004 Q 0.9626219531250001 0.34003200000000006 0.963125953125 0.3484320000000001 Q 0.9636299531250001 0.35683200000000004 0.9639659531250001 0.36321600000000004 Q 0.9643019531250001 0.36960000000000004 0.9646379531250001 0.37262400000000007 M 1.643674265625 0.4932480000000001 Q 1.624522265625 0.4932480000000001 1.606210265625 0.49207200000000006 Q 1.587898265625 0.49089600000000005 1.577482265625 0.48955200000000004 Q 1.564714265625 0.4630080000000001 1.548922265625 0.4194960000000001 Q 1.533130265625 0.37598400000000004 1.516666265625 0.32440800000000003 Q 1.500202265625 0.2728320000000001 1.485250265625 0.22024800000000005 Q 1.4702982656249999 0.16766400000000004 1.4585382656249999 0.12180000000000002 Q 1.446778265625 0.075936 1.440394265625 0.04502400000000001 Q 1.456858265625 0.03998400000000002 1.480210265625 0.036456000000000044 Q 1.503562265625 0.03292800000000001 1.526242265625 0.031079999999999997 Q 1.548922265625 0.029232000000000036 1.563034265625 0.029232000000000036 Q 1.563706265625 0.03460800000000003 1.567906265625 0.054264000000000034 Q 1.572106265625 0.07392000000000004 1.5786582656250001 0.10365600000000003 Q 1.585210265625 0.133392 1.593274265625 0.17001600000000006 Q 1.601338265625 0.20664000000000005 1.610242265625 0.24645600000000004 Q 1.619146265625 0.2862720000000001 1.6277142656249999 0.32625600000000005 Q 1.636282265625 0.36624000000000007 1.643674265625 0.40185600000000005 L 1.634938265625 0.40387200000000006 Q 1.641322265625 0.3796800000000001 1.648042265625 0.34456800000000004 Q 1.654762265625 0.30945600000000006 1.661650265625 0.26913600000000004 Q 1.668538265625 0.22881600000000002 1.674586265625 0.18883200000000006 Q 1.680634265625 0.14884800000000004 1.685674265625 0.11457600000000001 Q 1.690714265625 0.08030400000000004 1.693570265625 0.057120000000000004 Q 1.696426265625 0.03393600000000002 1.697098265625 0.027888000000000024 Q 1.723978265625 0.028224000000000027 1.757074265625 0.033096000000000014 Q 1.790170265625 0.037968 1.816378265625 0.047040000000000026 Q 1.804618265625 0.10516800000000004 1.790170265625 0.164808 Q 1.775722265625 0.22444800000000004 1.761274265625 0.2797200000000001 Q 1.746826265625 0.33499200000000007 1.734562265625 0.3800160000000001 Q 1.722298265625 0.4250400000000001 1.713730265625 0.45444000000000007 Q 1.705162265625 0.48384000000000005 1.703146265625 0.49156800000000006 Q 1.693402265625 0.49257600000000007 1.677442265625 0.4929120000000001 Q 1.6614822656250001 0.4932480000000001 1.643674265625 0.4932480000000001 M 2.1678076875000003 0.4260480000000001 Q 2.1583996875 0.4374720000000001 2.1442876875000003 0.44856000000000007 Q 2.1301756875 0.45964800000000006 2.1105196875 0.4685520000000001 Q 2.0908636875 0.47745600000000005 2.0656636875000003 0.4826640000000001 Q 2.0404636875 0.4878720000000001 2.0092156875000002 0.4878720000000001 Q 1.9584796875000001 0.4878720000000001 1.9191676875 0.4685520000000001 Q 1.8798556875 0.4492320000000001 1.8578476875 0.4110960000000001 Q 1.8358396875 0.37296000000000007 1.8358396875 0.316176 Q 1.8358396875 0.25939200000000007 1.8586876875 0.21722400000000003 Q 1.8815356875 0.17505600000000004 1.9225276875000001 0.151704 Q 1.9635196875 0.12835200000000002 2.0182876875 0.12835200000000002 Q 2.0875036875 0.12835200000000002 2.1273196875 0.16682400000000003 Q 2.1671356875 0.20529600000000003 2.1688156875 0.2731680000000001 Q 2.1691516875000003 0.2856000000000001 2.1684796875 0.29568000000000005 Q 2.1678076875000003 0.30576000000000003 2.1657916875 0.317184 Q 2.1607516875000004 0.316848 2.1442876875000003 0.316512 Q 2.1278236875000003 0.316176 2.1071596875000003 0.31567200000000006 Q 2.0864956875000003 0.31516800000000006 2.0681836875 0.31483200000000006 Q 2.0498716875 0.31449600000000005 2.0411356875 0.31449600000000005 Q 2.0119036875000003 0.31449600000000005 1.9845196875000002 0.317184 Q 1.9571356875 0.31987200000000005 1.9386556875 0.32289600000000007 Q 1.9386556875 0.328944 1.9394956875 0.33482400000000007 Q 1.9403356875000002 0.34070400000000006 1.9420156875 0.34608000000000005 Q 1.9463836875 0.35985600000000006 1.9573036875 0.36960000000000004 Q 1.9682236875 0.37934400000000007 1.9835116875 0.38455200000000006 Q 1.9987996875 0.38976000000000005 2.0159356875000003 0.38976000000000005 Q 2.0313916875 0.38976000000000005 2.0443276875 0.3858960000000001 Q 2.0572636875 0.38203200000000004 2.0680156875 0.37564800000000004 Q 2.0787676875 0.36926400000000004 2.0876716875000003 0.361704 Q 2.0965756875 0.354144 2.1043036875000003 0.34675200000000006 Q 2.1063196875 0.3484320000000001 2.1147196875 0.3566640000000001 Q 2.1231196875 0.36489600000000005 2.1335356875 0.37682400000000005 Q 2.1439516875 0.38875200000000004 2.1533596875 0.40185600000000005 Q 2.1627676875 0.41496000000000005 2.1678076875000003 0.4260480000000001 M 1.9423516875 0.2600640000000001 Q 1.9574716875 0.25771200000000005 1.9796476875000002 0.25569600000000003 Q 2.0018236875 0.25368 2.0310556875000003 0.25368 Q 2.0468476875 0.25368 2.0591116875 0.254016 Q 2.0713756875000002 0.254352 2.0764156875 0.254688 Q 2.0764156875 0.24763200000000005 2.0743996875 0.23923200000000006 Q 2.0717116875 0.22780800000000007 2.0638156875 0.21739200000000003 Q 2.0559196875000003 0.20697600000000005 2.0436556875000003 0.20059200000000005 Q 2.0313916875 0.19420800000000005 2.0142556875 0.19420800000000005 Q 1.9927516875000002 0.19420800000000005 1.9767916875 0.20361600000000002 Q 1.9608316875 0.21302400000000005 1.9520956875000002 0.228144 Q 1.9433596875 0.24326400000000004 1.9423516875 0.2600640000000001 M 2.46920165625 0.48518400000000006 Q 2.4685296562500003 0.4804800000000001 2.46819365625 0.47174400000000005 Q 2.46785765625 0.4630080000000001 2.46768965625 0.45376800000000006 Q 2.46752165625 0.44452800000000003 2.46752165625 0.43881600000000004 Q 2.46348965625 0.44452800000000003 2.4549216562500003 0.45242400000000005 Q 2.4463536562500003 0.46032000000000006 2.4329136562500002 0.4680480000000001 Q 2.41947365625 0.4757760000000001 2.40032165625 0.4809840000000001 Q 2.38116965625 0.48619200000000007 2.35563365625 0.48619200000000007 Q 2.31329765625 0.48619200000000007 2.28272165625 0.46569600000000005 Q 2.25214565625 0.44520000000000004 2.23568165625 0.40975200000000006 Q 2.21921765625 0.3743040000000001 2.21921765625 0.329952 Q 2.21921765625 0.2862720000000001 2.23584965625 0.24847200000000005 Q 2.25248165625 0.21067200000000003 2.28574565625 0.18732000000000004 Q 2.31900965625 0.16396800000000006 2.36940965625 0.16396800000000006 Q 2.39460965625 0.16396800000000006 2.41527365625 0.16968000000000005 Q 2.43593765625 0.17539200000000005 2.45038565625 0.18396 Q 2.46483365625 0.19252800000000003 2.47088165625 0.20126400000000005 Q 2.47188965625 0.18278400000000006 2.47356965625 0.15876 Q 2.47524965625 0.13473600000000002 2.47743365625 0.10936800000000002 Q 2.4796176562500003 0.08400000000000002 2.48163365625 0.06115200000000004 Q 2.48364965625 0.038304000000000005 2.4851616562500003 0.022008000000000028 Q 2.4866736562500003 0.005711999999999995 2.48734565625 0.00033600000000000296 Q 2.50683365625 0.00033600000000000296 2.53119365625 0.0025200000000000222 Q 2.5555536562500003 0.0047040000000000415 2.57436965625 0.00974400000000003 Q 2.56865765625 0.08668800000000004 2.5652976562500003 0.16346400000000005 Q 2.56193765625 0.24024000000000004 2.56076165625 0.32037600000000005 Q 2.5595856562500003 0.4005120000000001 2.5595856562500003 0.4882080000000001 Q 2.55185765625 0.4882080000000001 2.53421765625 0.4878720000000001 Q 2.51657765625 0.4875360000000001 2.49809765625 0.4868640000000001 Q 2.4796176562500003 0.48619200000000007 2.46920165625 0.48518400000000006 M 2.38352165625 0.38841600000000004 Q 2.3983056562500003 0.38841600000000004 2.4107376562500002 0.38505600000000006 Q 2.4231696562500002 0.38169600000000004 2.43358565625 0.37581600000000004 Q 2.44400165625 0.36993600000000004 2.45189765625 0.36304800000000004 Q 2.45979365625 0.35616000000000003 2.46516965625 0.3491040000000001 Q 2.46516965625 0.342384 2.46516965625 0.33247200000000005 Q 2.46516965625 0.32256000000000007 2.46533765625 0.3124800000000001 Q 2.46550565625 0.30240000000000006 2.46567365625 0.29332800000000003 Q 2.4658416562500003 0.28425600000000006 2.46617765625 0.279216 Q 2.45878565625 0.27216000000000007 2.44568165625 0.26544 Q 2.4325776562500003 0.25872000000000006 2.41695365625 0.2545200000000001 Q 2.40132965625 0.25032000000000004 2.38520165625 0.25032000000000004 Q 2.35227365625 0.25032000000000004 2.33396165625 0.26997600000000005 Q 2.31564965625 0.28963200000000006 2.31564965625 0.32088000000000005 Q 2.31564965625 0.35380800000000007 2.3332896562500003 0.37111200000000005 Q 2.35092965625 0.38841600000000004 2.38352165625 0.38841600000000004 M 2.776959609375 0.49190400000000006 Q 2.735631609375 0.49190400000000006 2.701359609375 0.4806480000000001 Q 2.6670876093750002 0.4693920000000001 2.646759609375 0.4440240000000001 Q 2.626431609375 0.41865600000000003 2.626431609375 0.37665600000000005 Q 2.626431609375 0.33465600000000006 2.650119609375 0.30895200000000006 Q 2.673807609375 0.28324800000000006 2.7126156093750002 0.271656 Q 2.751423609375 0.2600640000000001 2.796111609375 0.2600640000000001 Q 2.813583609375 0.2600640000000001 2.829711609375 0.26275200000000004 Q 2.845839609375 0.26544 2.858103609375 0.26913600000000004 Q 2.870367609375 0.2728320000000001 2.875743609375 0.27619200000000005 Q 2.8754076093750003 0.267456 2.872215609375 0.25771200000000005 Q 2.869023609375 0.24796800000000005 2.863311609375 0.24124800000000005 Q 2.853231609375 0.22747200000000006 2.835927609375 0.21823200000000004 Q 2.818623609375 0.20899200000000007 2.790399609375 0.20899200000000007 Q 2.761839609375 0.20899200000000007 2.739999609375 0.22192800000000001 Q 2.7181596093750002 0.23486400000000002 2.706735609375 0.25099200000000005 L 2.624751609375 0.19824000000000003 Q 2.639871609375 0.17673600000000006 2.665575609375 0.16060800000000003 Q 2.691279609375 0.14448000000000005 2.724039609375 0.13540800000000003 Q 2.7567996093750002 0.126336 2.792751609375 0.126336 Q 2.852223609375 0.126336 2.889183609375 0.145824 Q 2.926143609375 0.16531200000000001 2.943951609375 0.20025600000000005 Q 2.952351609375 0.21705600000000003 2.957727609375 0.23721600000000004 Q 2.963103609375 0.25737600000000005 2.965119609375 0.28358400000000006 Q 2.966463609375 0.30609600000000003 2.967135609375 0.32558400000000004 Q 2.967807609375 0.34507200000000005 2.968479609375 0.3625440000000001 Q 2.969151609375 0.3880800000000001 2.974191609375 0.39580800000000005 Q 2.979231609375 0.40353600000000006 2.9886396093750003 0.40353600000000006 Q 2.997375609375 0.40353600000000006 3.004263609375 0.3986640000000001 Q 3.011151609375 0.39379200000000003 3.013167609375 0.38572800000000007 L 3.0481116093750003 0.45259200000000005 Q 3.044415609375 0.4680480000000001 3.0272796093750003 0.47846400000000006 Q 3.010143609375 0.4888800000000001 2.983935609375 0.4888800000000001 Q 2.964783609375 0.4888800000000001 2.947647609375 0.4823280000000001 Q 2.930511609375 0.4757760000000001 2.919423609375 0.46452000000000004 Q 2.908335609375 0.45326400000000006 2.906319609375 0.43881600000000004 Q 2.900943609375 0.45158400000000004 2.8838076093750002 0.46384800000000004 Q 2.866671609375 0.4761120000000001 2.839791609375 0.48400800000000005 Q 2.812911609375 0.49190400000000006 2.776959609375 0.49190400000000006 M 2.799471609375 0.4129440000000001 Q 2.815263609375 0.4129440000000001 2.831895609375 0.40807200000000005 Q 2.848527609375 0.40320000000000006 2.862135609375 0.39580800000000005 Q 2.875743609375 0.38841600000000004 2.883135609375 0.380688 Q 2.8824636093750002 0.37027200000000005 2.881959609375 0.35918400000000006 Q 2.881455609375 0.34809600000000007 2.881791609375 0.34036800000000006 Q 2.874399609375 0.3373440000000001 2.853735609375 0.33381600000000006 Q 2.833071609375 0.330288 2.810559609375 0.330288 Q 2.790063609375 0.330288 2.772255609375 0.33465600000000006 Q 2.754447609375 0.33902400000000005 2.743191609375 0.34809600000000007 Q 2.7319356093750002 0.35716800000000004 2.7319356093750002 0.37161600000000006 Q 2.7319356093750002 0.3870720000000001 2.740335609375 0.39614400000000005 Q 2.748735609375 0.4052160000000001 2.763855609375 0.40908000000000005 Q 2.778975609375 0.4129440000000001 2.799471609375 0.4129440000000001 M 3.212094375 0.49190400000000006 Q 3.170766375 0.49190400000000006 3.136494375 0.4806480000000001 Q 3.102222375 0.4693920000000001 3.081894375 0.4440240000000001 Q 3.061566375 0.41865600000000003 3.061566375 0.37665600000000005 Q 3.061566375 0.33465600000000006 3.085254375 0.30895200000000006 Q 3.108942375 0.28324800000000006 3.147750375 0.271656 Q 3.186558375 0.2600640000000001 3.231246375 0.2600640000000001 Q 3.248718375 0.2600640000000001 3.264846375 0.26275200000000004 Q 3.280974375 0.26544 3.293238375 0.26913600000000004 Q 3.305502375 0.2728320000000001 3.310878375 0.27619200000000005 Q 3.310542375 0.267456 3.307350375 0.25771200000000005 Q 3.304158375 0.24796800000000005 3.298446375 0.24124800000000005 Q 3.288366375 0.22747200000000006 3.271062375 0.21823200000000004 Q 3.253758375 0.20899200000000007 3.225534375 0.20899200000000007 Q 3.196974375 0.20899200000000007 3.175134375 0.22192800000000001 Q 3.153294375 0.23486400000000002 3.141870375 0.25099200000000005 L 3.059886375 0.19824000000000003 Q 3.075006375 0.17673600000000006 3.100710375 0.16060800000000003 Q 3.126414375 0.14448000000000005 3.159174375 0.13540800000000003 Q 3.191934375 0.126336 3.227886375 0.126336 Q 3.287358375 0.126336 3.324318375 0.145824 Q 3.361278375 0.16531200000000001 3.379086375 0.20025600000000005 Q 3.387486375 0.21705600000000003 3.392862375 0.23721600000000004 Q 3.398238375 0.25737600000000005 3.4002543750000003 0.28358400000000006 Q 3.401598375 0.30609600000000003 3.402270375 0.32558400000000004 Q 3.402942375 0.34507200000000005 3.403614375 0.3625440000000001 Q 3.404286375 0.3880800000000001 3.409326375 0.39580800000000005 Q 3.414366375 0.40353600000000006 3.423774375 0.40353600000000006 Q 3.432510375 0.40353600000000006 3.439398375 0.3986640000000001 Q 3.446286375 0.39379200000000003 3.448302375 0.38572800000000007 L 3.4832463750000002 0.45259200000000005 Q 3.479550375 0.4680480000000001 3.462414375 0.47846400000000006 Q 3.445278375 0.4888800000000001 3.419070375 0.4888800000000001 Q 3.399918375 0.4888800000000001 3.382782375 0.4823280000000001 Q 3.365646375 0.4757760000000001 3.354558375 0.46452000000000004 Q 3.343470375 0.45326400000000006 3.341454375 0.43881600000000004 Q 3.336078375 0.45158400000000004 3.318942375 0.46384800000000004 Q 3.301806375 0.4761120000000001 3.274926375 0.48400800000000005 Q 3.248046375 0.49190400000000006 3.212094375 0.49190400000000006 M 3.234606375 0.4129440000000001 Q 3.250398375 0.4129440000000001 3.267030375 0.40807200000000005 Q 3.283662375 0.40320000000000006 3.297270375 0.39580800000000005 Q 3.310878375 0.38841600000000004 3.318270375 0.380688 Q 3.317598375 0.37027200000000005 3.317094375 0.35918400000000006 Q 3.316590375 0.34809600000000007 3.316926375 0.34036800000000006 Q 3.309534375 0.3373440000000001 3.288870375 0.33381600000000006 Q 3.268206375 0.330288 3.2456943750000002 0.330288 Q 3.225198375 0.330288 3.207390375 0.33465600000000006 Q 3.189582375 0.33902400000000005 3.178326375 0.34809600000000007 Q 3.1670703749999998 0.35716800000000004 3.1670703749999998 0.37161600000000006 Q 3.1670703749999998 0.3870720000000001 3.175470375 0.39614400000000005 Q 3.183870375 0.4052160000000001 3.198990375 0.40908000000000005 Q 3.214110375 0.4129440000000001 3.234606375 0.4129440000000001" fill="#102036" fill-rule="nonzero"></path></g><g></g></g><defs><clipPath id="SvgjsClipPath76612"><path d=" M -5.135598384175682 -11.722249803737219 h 13.747065908976365 v 11.472249803737219 h -13.747065908976365 Z"></path></clipPath><clipPath id="a576c6b0b-652e-4cd1-8211-1e87aa9e9d157657607f-0ff3-424e-a775-50e89a1c83e8"><path d=" M -5.135554656212413 -0.25 L 8.611511252763954 -0.25 L 8.611511252763954 -11.722249803737219 L -5.135554656212413 -11.722249803737219 Z"></path></clipPath></defs></svg>